<svg class="canvas" viewBox="0 0 1920 1080" preserveAspectRatio="xMaxYMid slice" xmlns="http://www.w3.org/2000/svg" version="1.1" xmlns:xlink="http://www.w3.org/1999/xlink" xmlns:svgjs="http://svgjs.dev/svgjs"><rect width="1920" height="1080" fill="hsl(181, 65%, 15%)"></rect><defs><linearGradient x1="0.5" y1="0" x2="0" y2="1" id="SvgjsLinearGradient1294"><stop stop-color="#28618a" offset="0"></stop><stop stop-color="#0c0614" offset="0.1"></stop></linearGradient><linearGradient x1="0.5" y1="0" x2="0" y2="1" id="SvgjsLinearGradient1295"><stop stop-color="#28898a" offset="0"></stop><stop stop-color="#060614" offset="0.22857142857142856"></stop></linearGradient><linearGradient x1="0.5" y1="0" x2="0" y2="1" id="SvgjsLinearGradient1296"><stop stop-color="#288a78" offset="0"></stop><stop stop-color="#060814" offset="0.3571428571428571"></stop></linearGradient><linearGradient x1="0.5" y1="0" x2="0" y2="1" id="SvgjsLinearGradient1297"><stop stop-color="#c0f1f2" offset="0"></stop><stop stop-color="#4442d7" offset="0.48571428571428565"></stop></linearGradient><linearGradient x1="0.5" y1="0" x2="0" y2="1" id="SvgjsLinearGradient1298"><stop stop-color="#c0e7f2" offset="0"></stop><stop stop-color="#6242d7" offset="0.6142857142857142"></stop></linearGradient><linearGradient x1="0.5" y1="0" x2="0" y2="1" id="SvgjsLinearGradient1299"><stop stop-color="#c0d3f2" offset="0"></stop><stop stop-color="#9e42d7" offset="0.7428571428571429"></stop></linearGradient><linearGradient x1="0.5" y1="0" x2="0" y2="1" id="SvgjsLinearGradient1300"><stop stop-color="#c0f1f2" offset="0"></stop><stop stop-color="#4442d7" offset="0.8714285714285713"></stop></linearGradient></defs><path d="M0,-546.2848601051395C48.68806411531477,-532.5577553632064,200.06673341296323,-485.92899764403734,292.12838469188864,-463.9222316535412C384.19003597081405,-441.91546566304504,465.13231301885213,-441.56763865853554,552.3699076735523,-414.2442641621627C639.6075023282526,-386.9208896657899,720.7227964364179,-327.82314725295436,815.5539526200901,-299.9819846753041C910.3851088037623,-272.1408220976538,1024.330935073917,-270.89185124783273,1121.3568447755858,-247.197288696261C1218.3827544772546,-223.50272614468932,1310.003695884211,-181.3639711369031,1397.7094108301028,-157.81460936587388C1485.4151257759945,-134.26524759484465,1560.5427029226198,-131.15607628020808,1647.591134450936,-105.90111807008567C1734.639565979252,-80.64615985996328,1874.5985224084893,-22.887569765963836,1920,-6.284860105139465L 1920 1080 L 0 1080 Z" fill="url(&quot;#SvgjsLinearGradient1294&quot;)"></path><path d="M0,-461.281399142633C80.43680402577776,-436.9181547327247,318.15427755960025,-366.0903897352032,482.62082415466654,-315.1019326831832C647.0873707497328,-264.11347563116317,827.9548744005824,-195.7441689941361,986.7992795703979,-155.35065683051283C1145.6436847402133,-114.95714466688958,1280.1538017686255,-114.13335503037594,1435.6872551735592,-72.74085970144358C1591.2207085784928,-31.348364372511227,1839.2812091955932,65.38011933566048,1920,93.0043151430813L 1920 1080 L 0 1080 Z" fill="url(&quot;#SvgjsLinearGradient1295&quot;)"></path><path d="M0,-331.3438960856922C43.77714029177711,-314.3162119151689,192.69270433194424,-243.56920546593582,262.66284175066266,-229.17779106255202C332.6329791693811,-214.7863766591682,333.9489971622458,-267.2002536179528,419.82082451231054,-244.9954096653894C505.69265186237527,-222.79056571282598,693.2358316564325,-123.94496857692785,777.8938058510512,-95.94872734717157C862.5517800456698,-67.95248611741529,861.7087501999343,-88.12128128567977,927.7686696800223,-77.01796228685174C993.8285891601103,-65.91464328802371,1091.8405294402532,-64.00419240334045,1174.2533227315787,-29.328813354203405C1256.6661160229041,5.346565694933652,1338.331431970355,105.86190360266134,1422.245429427975,131.03431200797058C1506.1594268855952,156.20672041327984,1594.778212381962,104.00676699802442,1677.7373074772995,121.70563707765206C1760.696402572637,139.40450715727968,1879.62288457955,217.97388325105567,1920,237.2275324857364L 1920 1080 L 0 1080 Z" fill="url(&quot;#SvgjsLinearGradient1296&quot;)"></path><path d="M0,-115.25974312291748C43.175427458940256,-109.81035644848419,170.707657554285,-104.51217402562736,259.05256475364155,-82.56342307631766C347.3974719529981,-60.614672127007964,453.06069595438476,-9.560625438323058,530.0694431961394,16.432762572940675C607.0781904378941,42.42615058420441,647.294313906161,54.27147869689949,721.1050482041696,73.39690499126472C794.9157825021782,92.52233128562995,885.6137736594603,105.42590335035717,972.933848984191,131.18532033913203C1060.2539243089216,156.9447373279069,1159.5352064046497,200.6516894854167,1245.0255001525531,227.9534069239139C1330.5157939004566,255.25512436241107,1419.0516046272846,265.3875043165861,1485.8756114716116,294.99562497011516C1552.6996183159386,324.6037456236442,1573.6154764637838,376.83516838440306,1645.9695412185151,405.6021308450881C1718.3236059732465,434.3690933057731,1874.3282568697525,457.2648549193692,1920,467.5973997342254L 1920 1080 L 0 1080 Z" fill="url(&quot;#SvgjsLinearGradient1297&quot;)"></path><path d="M0,-48.69650216915489C80.58087249396696,-24.099722759183575,325.83402382910447,51.122830529185315,483.48523496380176,98.884174290673C641.136446098499,146.6455180521607,783.5147321252985,188.1647682461783,945.9072668081835,237.8715603997712C1108.2998014910686,287.5783525533641,1295.4916541958091,345.36246144990844,1457.840443061112,397.1249272122303C1620.1892319264148,448.8873929745522,1842.973407176852,523.226117013457,1920,548.4463549737023L 1920 1080 L 0 1080 Z" fill="url(&quot;#SvgjsLinearGradient1298&quot;)"></path><path d="M0,110.25805114931407C42.14452510358752,125.50358777212972,167.36357319022204,177.3073217150841,252.86715062152513,201.73127088620794C338.3707280528282,226.15522005733177,419.41226865065596,222.7286076676142,513.0214645878186,256.8017461760571C606.6306605249813,290.87488468450005,711.9392376905104,374.1339793821065,814.5223262445011,406.1701019368654C917.1054147984918,438.20622449162437,1040.141680456846,424.4515608067427,1128.519995911763,449.01848150461086C1216.8983113666802,473.58540220247903,1252.7605059902276,526.0059228469164,1344.7922189740038,553.5716261240746C1436.8239319577801,581.1373294012327,1584.8423103100881,586.3935350919248,1680.7102738144208,614.4127011675599C1776.5782373187535,642.431867243195,1880.1183789690701,703.8076356761645,1920,721.6866225778855L 1920 1080 L 0 1080 Z" fill="url(&quot;#SvgjsLinearGradient1299&quot;)"></path><path d="M0,199.0036557607269C42.3909916736408,213.1626200289086,162.57413634673713,261.01971967262756,254.3459500418448,283.9574413698171C346.11776373695244,306.89516306700665,456.5309395647932,300.2324648765048,550.630882170646,336.6299859438642C644.7308247764989,373.0275070112236,725.5495095618769,471.1079639619266,818.945605676962,502.3425677739734C912.3417017920472,533.5771715860202,1020.9537612674196,502.21759824129066,1111.0074588611565,524.037608816145C1201.0611564548933,545.8576193909994,1265.9234354969296,604.2946078721116,1359.2677912393833,633.2626312230998C1452.612146981837,662.230654574088,1577.618225189109,665.9365305467558,1671.0735933158783,697.8457489220746C1764.5289614426476,729.7549672973934,1878.5122655526463,803.572576049523,1920,824.7179414750127L 1920 1080 L 0 1080 Z" fill="url(&quot;#SvgjsLinearGradient1300&quot;)"></path></svg>